<?xml version="1.0"?><svg id="Layer_2" xmlns="http://www.w3.org/2000/svg" viewBox="0 0 330.59 141.29"><defs></defs><g id="Layer_1-2"><polygon class="cls-1" points="111.26 .06 122.74 19.78 144.38 19.78 133.85 38.54 145.34 58.45 178.84 .06 111.26 .06"></polygon><polygon class="cls-1" points="201.21 0 168.09 58.4 145.3 58.4 156.6 78.69 179.19 78.69 224.76 0 201.21 0"></polygon><path class="cls-1" d="M16.41,140.52L0,99.34h9.53l9.41,26.18c.63,1.73,1.12,3.45,1.47,5.18.2-.86.41-1.74.65-2.62s.51-1.74.82-2.56l9.41-26.18h9.35l-16.29,41.18h-7.94Z"></path><path class="cls-1" d="M53.29,141.29c-3.14,0-5.9-.73-8.29-2.18-2.39-1.45-4.25-3.38-5.56-5.79-1.31-2.41-1.97-5.09-1.97-8.03s.69-5.64,2.06-8.09c1.37-2.45,3.24-4.4,5.62-5.85,2.37-1.45,5.09-2.18,8.15-2.18s5.75.73,8.09,2.18c2.33,1.45,4.16,3.4,5.47,5.85,1.31,2.45,1.97,5.15,1.97,8.09,0,.43-.02.88-.06,1.35s-.1.96-.18,1.47h-22.88c.43,1.8,1.3,3.28,2.62,4.41,1.31,1.14,2.97,1.71,4.97,1.71,1.73,0,3.23-.39,4.5-1.18,1.27-.78,2.26-1.76,2.97-2.94l6.18,4.65c-1.22,1.92-3.04,3.49-5.47,4.71-2.43,1.21-5.16,1.82-8.18,1.82ZM53.18,115.99c-1.88,0-3.49.57-4.82,1.71-1.33,1.14-2.22,2.63-2.65,4.47h15.12c-.43-1.69-1.32-3.14-2.68-4.35-1.35-1.22-3.01-1.82-4.97-1.82Z"></path><path class="cls-1" d="M73.47,140.52v-30.59h7.71v5.82c.51-2.2,1.55-3.87,3.12-5.03,1.57-1.16,3.69-1.66,6.35-1.5v7.47h-1.12c-2.27,0-4.2.73-5.76,2.18-1.57,1.45-2.35,3.45-2.35,6v15.65h-7.94Z"></path><path class="cls-1" d="M94.47,140.52v-42.94h7.94v24.71l11.47-12.35h11.29l-14.41,14.24,14.47,16.35h-10.53l-12.29-14.53v14.53h-7.94Z"></path><path class="cls-1" d="M128.47,140.52v-42.94h7.94v16.59c1.65-3.29,4.73-4.94,9.24-4.94,2.2,0,4.18.51,5.94,1.53,1.76,1.02,3.16,2.47,4.18,4.35,1.02,1.88,1.53,4.12,1.53,6.71v18.71h-7.94v-16.76c0-2.67-.61-4.6-1.82-5.79-1.22-1.2-2.8-1.79-4.76-1.79-1.69,0-3.17.6-4.44,1.79-1.27,1.2-1.91,3.13-1.91,5.79v16.76h-7.94Z"></path><path class="cls-1" d="M178,141.29c-3.14,0-5.94-.73-8.41-2.18-2.47-1.45-4.4-3.38-5.79-5.79-1.39-2.41-2.09-5.09-2.09-8.03s.7-5.63,2.09-8.06c1.39-2.43,3.32-4.37,5.79-5.82,2.47-1.45,5.27-2.18,8.41-2.18s5.99.73,8.44,2.18c2.45,1.45,4.37,3.39,5.76,5.82,1.39,2.43,2.09,5.12,2.09,8.06s-.7,5.62-2.09,8.03c-1.39,2.41-3.31,4.34-5.76,5.79-2.45,1.45-5.26,2.18-8.44,2.18ZM171.77,107.4c-1.33,0-2.46-.46-3.38-1.38-.92-.92-1.38-2.03-1.38-3.32s.46-2.34,1.38-3.26,2.05-1.38,3.38-1.38,2.51.46,3.41,1.38c.9.92,1.35,2.01,1.35,3.26,0,1.33-.45,2.45-1.35,3.35-.9.9-2.04,1.35-3.41,1.35ZM178,134.05c1.69,0,3.16-.4,4.41-1.21,1.25-.8,2.23-1.87,2.91-3.21.69-1.33,1.03-2.78,1.03-4.35s-.34-3.08-1.03-4.41c-.69-1.33-1.66-2.4-2.91-3.21-1.26-.8-2.73-1.21-4.41-1.21s-3.16.4-4.41,1.21c-1.25.8-2.23,1.87-2.91,3.21-.69,1.33-1.03,2.8-1.03,4.41s.34,3.02,1.03,4.35c.69,1.33,1.66,2.4,2.91,3.21,1.25.8,2.73,1.21,4.41,1.21ZM184.24,107.4c-1.33,0-2.46-.46-3.38-1.38-.92-.92-1.38-2.03-1.38-3.32s.46-2.34,1.38-3.26,2.05-1.38,3.38-1.38,2.51.46,3.41,1.38c.9.92,1.35,2.01,1.35,3.26,0,1.33-.45,2.45-1.35,3.35-.9.9-2.04,1.35-3.41,1.35Z"></path><path class="cls-1" d="M199,140.52v-30.59h7.82v4.47c1.61-3.45,4.73-5.18,9.35-5.18,2.2,0,4.18.51,5.94,1.53,1.76,1.02,3.16,2.47,4.18,4.35,1.02,1.88,1.53,4.12,1.53,6.71v18.71h-7.94v-16.76c0-2.67-.61-4.6-1.82-5.79-1.22-1.2-2.8-1.79-4.76-1.79-1.69,0-3.17.6-4.44,1.79-1.27,1.2-1.91,3.13-1.91,5.79v16.76h-7.94Z"></path><path class="cls-1" d="M233.41,140.52v-30.59h7.82v4.47c1.61-3.45,4.73-5.18,9.35-5.18,2.2,0,4.18.51,5.94,1.53,1.76,1.02,3.16,2.47,4.18,4.35,1.02,1.88,1.53,4.12,1.53,6.71v18.71h-7.94v-16.76c0-2.67-.61-4.6-1.82-5.79-1.22-1.2-2.8-1.79-4.76-1.79-1.69,0-3.17.6-4.44,1.79-1.27,1.2-1.91,3.13-1.91,5.79v16.76h-7.94Z"></path><path class="cls-1" d="M279.18,141.23c-2.2,0-4.18-.51-5.94-1.53-1.76-1.02-3.16-2.48-4.18-4.38-1.02-1.9-1.53-4.13-1.53-6.68v-18.71h7.94v16.76c0,2.63.53,4.55,1.59,5.77,1.06,1.22,2.57,1.82,4.53,1.82,1.69,0,3.17-.61,4.44-1.82,1.27-1.22,1.91-3.14,1.91-5.77v-16.76h7.94v30.59h-7.71v-4.59c-.75,1.76-1.83,3.09-3.26,3.97-1.43.88-3.34,1.32-5.74,1.32Z"></path><path class="cls-1" d="M301.77,140.52v-30.59h7.82v4.47c1.61-3.45,4.73-5.18,9.35-5.18,2.2,0,4.18.51,5.94,1.53,1.76,1.02,3.16,2.47,4.18,4.35,1.02,1.88,1.53,4.12,1.53,6.71v18.71h-7.94v-16.76c0-2.67-.61-4.6-1.82-5.79-1.22-1.2-2.8-1.79-4.76-1.79-1.69,0-3.17.6-4.44,1.79-1.27,1.2-1.91,3.13-1.91,5.79v16.76h-7.94Z"></path></g></svg>