<?xml version="1.0"?><svg id="Layer_2" xmlns="http://www.w3.org/2000/svg" viewBox="0 0 495.3 63.57"><defs></defs><g id="Layer_1-2"><polygon class="cls-1" points="0 1.7 8.64 16.52 24.9 16.52 16.98 30.63 25.62 45.59 50.81 1.7 0 1.7"></polygon><polygon class="cls-1" points="67.65 1.7 42.75 45.59 25.62 45.59 34.11 60.85 51.1 60.85 85.35 1.7 67.65 1.7"></polygon><path class="cls-1" d="M98.47,62.55c-4.49,0-8.45-1.04-11.87-3.12-3.42-2.08-6.08-4.84-7.96-8.29-1.88-3.45-2.82-7.28-2.82-11.49s.98-8.07,2.95-11.58c1.96-3.51,4.64-6.3,8.04-8.38,3.4-2.08,7.28-3.12,11.66-3.12s8.24,1.04,11.58,3.12c3.34,2.08,5.95,4.87,7.83,8.38,1.88,3.51,2.82,7.37,2.82,11.58,0,.62-.03,1.26-.08,1.94-.06.67-.14,1.38-.25,2.1h-32.75c.62,2.58,1.87,4.69,3.75,6.31,1.88,1.63,4.25,2.44,7.11,2.44,2.47,0,4.62-.56,6.44-1.68,1.82-1.12,3.24-2.53,4.25-4.21l8.84,6.65c-1.74,2.75-4.35,5-7.83,6.73-3.48,1.74-7.38,2.61-11.7,2.61ZM98.3,26.35c-2.69,0-5,.81-6.9,2.44-1.91,1.63-3.17,3.76-3.79,6.4h21.64c-.62-2.41-1.89-4.49-3.83-6.23-1.94-1.74-4.31-2.61-7.11-2.61Z"></path><path class="cls-1" d="M127.34,61.45V17.68h11.03v8.33c.73-3.14,2.22-5.54,4.46-7.2,2.24-1.66,5.27-2.37,9.09-2.15v10.69h-1.6c-3.26,0-6.01,1.04-8.25,3.11-2.25,2.08-3.37,4.94-3.37,8.59v22.39h-11.36Z"></path><path class="cls-1" d="M157.39,61.45V0h11.36v35.36l16.42-17.68h16.16l-20.62,20.37,20.71,23.4h-15.07l-17.59-20.79v20.79h-11.36Z"></path><path class="cls-1" d="M206.05,61.45V0h11.36v23.74c2.36-4.71,6.76-7.07,13.22-7.07,3.14,0,5.98.73,8.5,2.19,2.53,1.46,4.52,3.54,5.98,6.23,1.46,2.69,2.19,5.89,2.19,9.6v26.77h-11.36v-23.99c0-3.82-.87-6.58-2.61-8.29-1.74-1.71-4.01-2.57-6.82-2.57-2.41,0-4.53.86-6.36,2.57-1.82,1.71-2.74,4.48-2.74,8.29v23.99h-11.36Z"></path><path class="cls-1" d="M306.99,61.45V17.68h11.2v6.4c2.3-4.94,6.76-7.41,13.39-7.41,3.14,0,5.98.73,8.5,2.19,2.53,1.46,4.52,3.54,5.98,6.23,1.46,2.69,2.19,5.89,2.19,9.6v26.77h-11.36v-23.99c0-3.82-.87-6.58-2.61-8.29-1.74-1.71-4.01-2.57-6.82-2.57-2.41,0-4.53.86-6.36,2.57-1.82,1.71-2.74,4.48-2.74,8.29v23.99h-11.36Z"></path><path class="cls-1" d="M356.23,61.45V17.68h11.2v6.4c2.3-4.94,6.76-7.41,13.39-7.41,3.14,0,5.98.73,8.5,2.19,2.53,1.46,4.52,3.54,5.98,6.23,1.46,2.69,2.19,5.89,2.19,9.6v26.77h-11.36v-23.99c0-3.82-.87-6.58-2.61-8.29-1.74-1.71-4.01-2.57-6.82-2.57-2.41,0-4.53.86-6.36,2.57-1.82,1.71-2.74,4.48-2.74,8.29v23.99h-11.36Z"></path><path class="cls-1" d="M421.73,62.46c-3.14,0-5.98-.73-8.5-2.19s-4.52-3.55-5.98-6.27c-1.46-2.72-2.19-5.91-2.19-9.55v-26.77h11.36v23.99c0,3.76.76,6.51,2.27,8.25,1.52,1.74,3.68,2.61,6.48,2.61,2.41,0,4.53-.87,6.36-2.61,1.82-1.74,2.74-4.49,2.74-8.25v-23.99h11.36v43.78h-11.03v-6.57c-1.07,2.53-2.62,4.42-4.67,5.68-2.05,1.26-4.79,1.89-8.21,1.89Z"></path><path class="cls-1" d="M454.05,61.45V17.68h11.2v6.4c2.3-4.94,6.76-7.41,13.39-7.41,3.14,0,5.98.73,8.5,2.19,2.53,1.46,4.52,3.54,5.98,6.23,1.46,2.69,2.19,5.89,2.19,9.6v26.77h-11.36v-23.99c0-3.82-.87-6.58-2.61-8.29-1.74-1.71-4.01-2.57-6.82-2.57-2.41,0-4.53.86-6.36,2.57-1.82,1.71-2.74,4.48-2.74,8.29v23.99h-11.36Z"></path><path class="cls-1" d="M276.93,63.57c-4.49,0-8.5-1.04-12.04-3.12-3.54-2.08-6.3-4.84-8.29-8.29-1.99-3.45-2.99-7.28-2.99-11.49s1-8.05,2.99-11.53c1.99-3.48,4.76-6.26,8.29-8.33,3.54-2.08,7.55-3.11,12.04-3.11s8.57,1.04,12.08,3.11c3.51,2.08,6.26,4.86,8.25,8.33,1.99,3.48,2.99,7.32,2.99,11.53s-1,8.04-2.99,11.49c-1.99,3.45-4.74,6.22-8.25,8.29-3.51,2.08-7.53,3.12-12.08,3.12ZM268.01,15.08c-1.91,0-3.52-.66-4.84-1.98-1.32-1.32-1.98-2.9-1.98-4.76s.66-3.35,1.98-4.67,2.93-1.98,4.84-1.98,3.59.66,4.88,1.98c1.29,1.32,1.94,2.88,1.94,4.67,0,1.91-.65,3.51-1.94,4.8-1.29,1.29-2.92,1.94-4.88,1.94ZM276.93,53.22c2.41,0,4.52-.58,6.31-1.73,1.8-1.15,3.18-2.68,4.17-4.59.98-1.91,1.47-3.98,1.47-6.23s-.49-4.41-1.47-6.31c-.98-1.91-2.37-3.44-4.17-4.59-1.8-1.15-3.9-1.73-6.31-1.73s-4.52.58-6.31,1.73c-1.8,1.15-3.19,2.68-4.17,4.59-.98,1.91-1.47,4.01-1.47,6.31s.49,4.32,1.47,6.23c.98,1.91,2.37,3.44,4.17,4.59,1.8,1.15,3.9,1.73,6.31,1.73ZM285.86,15.08c-1.91,0-3.52-.66-4.84-1.98-1.32-1.32-1.98-2.9-1.98-4.76s.66-3.35,1.98-4.67c1.32-1.32,2.93-1.98,4.84-1.98s3.59.66,4.88,1.98c1.29,1.32,1.94,2.88,1.94,4.67,0,1.91-.65,3.51-1.94,4.8-1.29,1.29-2.92,1.94-4.88,1.94Z"></path></g></svg>