<?xml version="1.0"?><svg id="Layer_2" xmlns="http://www.w3.org/2000/svg" viewBox="0 0 156.66 156.66"><defs></defs><g id="Layer_1-2"><path class="cls-1" d="M67.05,78.33c0-6.23,5.05-11.28,11.28-11.28s11.28,5.05,11.28,11.28-5.05,11.28-11.28,11.28-11.28-5.05-11.28-11.28M78.33,52.01c-14.54,0-26.33,11.79-26.33,26.33s11.79,26.33,26.33,26.33,26.32-11.79,26.32-26.33-11.79-26.33-26.32-26.33"></path><path class="cls-1" d="M37.99,95.04l-16.71-16.71,16.71-16.71v-23.63h23.63l16.71-16.71,16.71,16.71h23.63v23.63l16.71,16.71-16.71,16.71v23.63h-23.63l-16.71,16.71-16.71-16.71h-23.63v-23.63ZM55.39,22.94H22.94v32.44L0,78.33l22.94,22.94v32.45h32.45l22.94,22.94,22.94-22.94h32.45v-32.45l22.94-22.94-22.94-22.94V22.94h-32.45L78.33,0l-22.94,22.94Z"></path></g></svg>