<?xml version="1.0"?><svg id="Layer_2" xmlns="http://www.w3.org/2000/svg" viewBox="0 0 172.78 172.78"><defs></defs><g id="Layer_1-2"><path class="cls-1" d="M73.95,86.39c0-6.87,5.57-12.44,12.44-12.44s12.44,5.57,12.44,12.44-5.57,12.44-12.44,12.44-12.44-5.57-12.44-12.44M86.39,57.36c-16.04,0-29.03,13-29.03,29.03s13,29.03,29.03,29.03,29.03-13,29.03-29.03-13-29.03-29.03-29.03"></path><path class="cls-1" d="M23.46,86.39l62.93-62.93,62.93,62.93-62.93,62.93-62.93-62.93ZM0,86.39l86.39,86.39,86.39-86.39L86.39,0,0,86.39Z"></path></g></svg>