<?xml version="1.0"?><svg id="Layer_2" xmlns="http://www.w3.org/2000/svg" viewBox="0 0 165.91 165.91"><defs></defs><g id="Layer_1-2"><rect class="cls-1" x="74.66" y="147.24" width="16.59" height="18.66"></rect><rect class="cls-1" x="74.66" width="16.59" height="18.66"></rect><path class="cls-1" d="M82.95,49.77c-18.33,0-33.18,14.86-33.18,33.18s14.86,33.18,33.18,33.18,33.18-14.86,33.18-33.18-14.86-33.18-33.18-33.18M33.18,82.95c0-27.49,22.28-49.77,49.77-49.77s49.77,22.28,49.77,49.77-22.28,49.77-49.77,49.77-49.77-22.28-49.77-49.77"></path><rect class="cls-1" y="74.66" width="18.66" height="16.59"></rect><rect class="cls-1" x="147.24" y="74.66" width="18.66" height="16.59"></rect><rect class="cls-1" x="22.6" y="21.56" width="16.59" height="18.66" transform="translate(-12.8 30.9) rotate(-45)"></rect><rect class="cls-1" x="126.72" y="125.68" width="16.59" height="18.67" transform="translate(-55.92 135.01) rotate(-45)"></rect><rect class="cls-1" x="21.56" y="126.72" width="18.67" height="16.59" transform="translate(-86.42 61.39) rotate(-45)"></rect><rect class="cls-1" x="125.68" y="22.6" width="18.66" height="16.59" transform="translate(17.7 104.52) rotate(-45)"></rect></g></svg>