<?xml version="1.0"?><svg id="Layer_2" xmlns="http://www.w3.org/2000/svg" viewBox="0 0 150.04 135.04"><defs></defs><g id="Layer_1-2"><path class="cls-1" d="M15,45.01c0-4.14,3.36-7.5,7.5-7.5s7.5,3.36,7.5,7.5-3.36,7.5-7.5,7.5-7.5-3.36-7.5-7.5M30.01,23.79V0h-15v23.79C6.26,26.88,0,35.21,0,45.01s6.26,18.14,15,21.23v68.8h15v-68.8c8.74-3.09,15-11.43,15-21.23s-6.26-18.14-15-21.23"></path><path class="cls-1" d="M67.52,97.53c0-4.14,3.36-7.5,7.5-7.5s7.5,3.36,7.5,7.5-3.36,7.5-7.5,7.5-7.5-3.36-7.5-7.5M67.52,76.3c-8.74,3.09-15,11.43-15,21.23s6.26,18.14,15,21.23v16.28h15v-16.28c8.74-3.09,15-11.43,15-21.23s-6.26-18.14-15-21.23V0h-15v76.3Z"></path><path class="cls-1" d="M120.03,60.02c0-4.14,3.36-7.5,7.5-7.5s7.5,3.36,7.5,7.5-3.36,7.5-7.5,7.5-7.5-3.36-7.5-7.5M135.04,38.79V0h-15v38.79c-8.74,3.09-15,11.43-15,21.23s6.26,18.14,15,21.23v53.79h15v-53.79c8.74-3.09,15-11.43,15-21.23s-6.26-18.14-15-21.23"></path></g></svg>